<svg xmlns="http://www.w3.org/2000/svg" xmlns:xlink="http://www.w3.org/1999/xlink" width="40" zoomAndPan="magnify" viewBox="0 0 30 30.000001" height="40" preserveAspectRatio="xMidYMid meet" version="1.0"><defs><clipPath id="8302bad39f"><path d="M 16 5.082031 L 20 5.082031 L 20 10 L 16 10 Z M 16 5.082031 " clip-rule="nonzero"/></clipPath><clipPath id="577dd5c47e"><path d="M 17 5.082031 L 20 5.082031 L 20 8 L 17 8 Z M 17 5.082031 " clip-rule="nonzero"/></clipPath><clipPath id="e80aca1fca"><path d="M 18 5.082031 L 20 5.082031 L 20 9 L 18 9 Z M 18 5.082031 " clip-rule="nonzero"/></clipPath><clipPath id="61c11f5336"><path d="M 18 13 L 29.464844 13 L 29.464844 18 L 18 18 Z M 18 13 " clip-rule="nonzero"/></clipPath><clipPath id="9ebe1354a2"><path d="M 0.484375 7 L 20 7 L 20 20 L 0.484375 20 Z M 0.484375 7 " clip-rule="nonzero"/></clipPath><clipPath id="d6d9754caf"><path d="M 0.484375 9 L 16 9 L 16 17 L 0.484375 17 Z M 0.484375 9 " clip-rule="nonzero"/></clipPath><clipPath id="e55b0229ee"><path d="M 17 7 L 29 7 L 29 20.324219 L 17 20.324219 Z M 17 7 " clip-rule="nonzero"/></clipPath><clipPath id="94017025a0"><path d="M 17 8 L 24 8 L 24 20.324219 L 17 20.324219 Z M 17 8 " clip-rule="nonzero"/></clipPath></defs><g clip-path="url(#8302bad39f)"><path fill="#f4de0a" d="M 17.734375 7.320312 C 18.132812 6.765625 18.414062 6.152344 18.5 5.453125 C 18.523438 5.273438 18.667969 5.128906 18.847656 5.105469 C 18.886719 5.101562 18.929688 5.097656 18.96875 5.09375 C 19.132812 5.082031 19.304688 5.085938 19.4375 5.179688 C 19.683594 5.347656 19.53125 5.765625 19.507812 6.011719 C 19.472656 6.390625 19.449219 6.765625 19.429688 7.144531 C 19.398438 7.890625 19.507812 8.746094 19.554688 9.492188 C 19.441406 9.503906 19.214844 8.996094 19.117188 8.945312 C 18.585938 8.671875 18.027344 8.484375 17.453125 8.335938 C 17.199219 8.269531 16.820312 8.179688 17.039062 7.941406 C 17.222656 7.738281 17.578125 7.535156 17.734375 7.320312 " fill-opacity="1" fill-rule="nonzero"/></g><g clip-path="url(#577dd5c47e)"><path fill="#281711" d="M 19.410156 7.941406 C 19.414062 7.902344 19.429688 7.1875 19.429688 7.144531 C 19.449219 6.765625 19.472656 6.390625 19.507812 6.011719 C 19.53125 5.765625 19.683594 5.347656 19.4375 5.179688 C 19.304688 5.085938 19.132812 5.082031 18.96875 5.09375 C 18.910156 5.097656 18.851562 5.105469 18.792969 5.113281 C 18.640625 5.136719 18.523438 5.257812 18.507812 5.410156 C 18.449219 5.925781 18.230469 6.445312 17.734375 7.320312 C 18.539062 7.28125 19.007812 7.503906 19.410156 7.941406 " fill-opacity="1" fill-rule="nonzero"/></g><g clip-path="url(#e80aca1fca)"><path fill="#1b0f09" d="M 19.4375 5.179688 C 19.378906 5.136719 19.308594 5.113281 19.238281 5.101562 C 19.347656 5.828125 19.082031 6.644531 18.507812 7.085938 C 18.375 7.191406 18.234375 7.269531 18.085938 7.320312 C 18.683594 7.355469 19.109375 7.730469 19.449219 8.101562 C 19.488281 8.261719 19.429688 7.1875 19.429688 7.144531 C 19.449219 6.765625 19.472656 6.390625 19.507812 6.011719 C 19.53125 5.765625 19.683594 5.347656 19.4375 5.179688 " fill-opacity="1" fill-rule="nonzero"/></g><g clip-path="url(#61c11f5336)"><path fill="#f4de0a" d="M 21.902344 15.285156 C 23.359375 15.726562 24.921875 15.664062 26.609375 15.503906 C 27.4375 15.425781 28.347656 15.238281 29.171875 15.285156 C 29.445312 16.195312 27.738281 16.699219 27.148438 16.882812 C 25.476562 17.390625 23.597656 17.828125 21.855469 17.4375 C 20.980469 17.242188 20.1875 16.804688 19.636719 16.085938 C 19.429688 15.8125 18.113281 13.890625 19.113281 13.738281 C 19.226562 13.71875 19.324219 13.804688 19.410156 13.878906 C 20.207031 14.582031 21.039062 15.023438 21.902344 15.285156 " fill-opacity="1" fill-rule="nonzero"/></g><path fill="#f1b210" d="M 20.832031 14.855469 C 20.347656 14.605469 19.875 14.285156 19.410156 13.878906 C 19.324219 13.804688 19.226562 13.71875 19.113281 13.738281 C 18.113281 13.890625 19.429688 15.8125 19.636719 16.085938 C 20.1875 16.804688 20.980469 17.242188 21.855469 17.4375 C 22.5625 17.597656 23.289062 17.617188 24.019531 17.554688 C 22.558594 17.105469 21.285156 16.183594 20.832031 14.855469 " fill-opacity="1" fill-rule="nonzero"/><path fill="#f4de0a" d="M 11.296875 13.007812 C 10.886719 12.925781 10.492188 12.761719 10.144531 12.53125 C 9.269531 11.949219 9.019531 10.945312 8.347656 10.179688 C 7.582031 9.300781 6.519531 8.765625 5.382812 8.554688 C 4.832031 8.453125 4.273438 8.425781 3.71875 8.453125 C 3.507812 8.460938 3.128906 8.425781 2.941406 8.523438 C 2.847656 8.574219 2.53125 9.023438 2.574219 9.015625 C 3.574219 8.867188 4.628906 9.140625 5.433594 9.753906 C 6.433594 10.519531 6.4375 12.109375 6.976562 13.179688 C 7.371094 13.96875 7.996094 14.585938 8.800781 14.945312 C 9.777344 15.378906 10.898438 15.414062 11.9375 15.1875 C 13.261719 14.894531 14.4375 13.648438 14.5625 12.265625 C 13.652344 12.867188 12.386719 13.230469 11.296875 13.007812 " fill-opacity="1" fill-rule="nonzero"/><path fill="#f1bd0f" d="M 4.695312 9.316406 C 5.664062 9.167969 6.660156 9.230469 7.597656 9.492188 C 6.945312 9.011719 6.183594 8.703125 5.382812 8.554688 C 4.832031 8.453125 4.273438 8.425781 3.71875 8.453125 C 3.507812 8.460938 3.128906 8.425781 2.941406 8.523438 C 2.847656 8.574219 2.53125 9.023438 2.574219 9.015625 C 3.289062 8.910156 4.035156 9.019531 4.695312 9.316406 " fill-opacity="1" fill-rule="nonzero"/><path fill="#ef9d13" d="M 5.925781 8.945312 C 6.363281 9.039062 6.777344 9.191406 7.171875 9.386719 C 7.316406 9.417969 7.457031 9.453125 7.597656 9.492188 C 6.945312 9.011719 6.183594 8.703125 5.382812 8.554688 C 4.832031 8.453125 4.273438 8.425781 3.71875 8.453125 C 3.507812 8.460938 3.128906 8.425781 2.941406 8.523438 C 2.890625 8.550781 2.78125 8.6875 2.695312 8.808594 C 3.773438 8.742188 4.863281 8.710938 5.925781 8.945312 " fill-opacity="1" fill-rule="nonzero"/><path fill="#f1b210" d="M 11.304688 13.011719 C 10.992188 13.367188 10.628906 13.679688 10.199219 13.925781 C 9.539062 14.308594 8.789062 14.492188 8.046875 14.492188 C 8.277344 14.671875 8.527344 14.824219 8.800781 14.945312 C 9.777344 15.378906 10.898438 15.414062 11.9375 15.1875 C 13.261719 14.894531 14.4375 13.648438 14.5625 12.265625 C 13.652344 12.867188 12.390625 13.230469 11.304688 13.011719 " fill-opacity="1" fill-rule="nonzero"/><path fill="#ef9914" d="M 12.664062 13.015625 C 12.371094 13.339844 12.015625 13.621094 11.6875 13.851562 C 10.972656 14.367188 10.175781 14.882812 9.320312 15.136719 C 10.164062 15.382812 11.078125 15.375 11.9375 15.1875 C 13.261719 14.894531 14.4375 13.648438 14.5625 12.265625 C 14.019531 12.625 13.347656 12.898438 12.664062 13.015625 " fill-opacity="1" fill-rule="nonzero"/><g clip-path="url(#9ebe1354a2)"><path fill="#f4de0a" d="M 14.332031 11.957031 C 13.265625 13.613281 11.492188 14.726562 9.605469 15.296875 C 7.175781 16.03125 4.332031 16.011719 1.8125 15.871094 C 1.5 15.851562 1.167969 15.832031 0.894531 15.980469 C 0.617188 16.125 0.445312 16.511719 0.628906 16.761719 C 0.699219 16.855469 0.800781 16.917969 0.902344 16.972656 C 5.386719 19.441406 11.011719 20.179688 15.136719 17.269531 C 17.988281 15.257812 19.007812 11.40625 19.40625 9.128906 C 19.773438 7.027344 17.734375 7.183594 16.664062 8.25 C 15.625 9.289062 15.113281 10.742188 14.332031 11.957031 " fill-opacity="1" fill-rule="nonzero"/></g><g clip-path="url(#d6d9754caf)"><path fill="#f5f235" d="M 3.691406 16.621094 C 5.691406 16.726562 7.71875 16.449219 9.636719 15.875 C 11.582031 15.292969 13.386719 14.296875 14.726562 12.738281 C 15.332031 12.039062 15.847656 11.136719 15.964844 10.226562 C 16.011719 9.863281 15.988281 9.496094 15.949219 9.128906 C 15.34375 10.027344 14.914062 11.054688 14.332031 11.957031 C 13.265625 13.613281 11.492188 14.726562 9.605469 15.296875 C 7.175781 16.03125 4.332031 16.011719 1.8125 15.871094 C 1.5 15.851562 1.167969 15.832031 0.894531 15.980469 C 0.84375 16.007812 0.796875 16.042969 0.753906 16.082031 C 1.707031 16.394531 2.707031 16.570312 3.691406 16.621094 " fill-opacity="1" fill-rule="nonzero"/></g><path fill="#f2c50d" d="M 17.871094 9.582031 C 17.890625 10.171875 17.824219 10.761719 17.652344 11.328125 C 17.265625 12.613281 16.460938 13.753906 15.503906 14.679688 C 13.808594 16.316406 11.667969 17.339844 9.402344 17.910156 C 7.886719 18.289062 6.28125 18.53125 4.695312 18.542969 C 8.289062 19.574219 12.113281 19.398438 15.136719 17.269531 C 17.808594 15.382812 18.871094 11.886719 19.320312 9.582031 L 17.871094 9.582031 " fill-opacity="1" fill-rule="nonzero"/><path fill="#f0a812" d="M 18.804688 9.582031 C 18.6875 10.800781 18.277344 11.992188 17.664062 13.078125 C 16.128906 15.804688 13.542969 17.953125 10.605469 19.03125 C 12.214844 18.804688 13.757812 18.238281 15.136719 17.269531 C 17.808594 15.382812 18.871094 11.886719 19.320312 9.582031 L 18.804688 9.582031 " fill-opacity="1" fill-rule="nonzero"/><g clip-path="url(#e55b0229ee)"><path fill="#f4de0a" d="M 19.585938 12.582031 C 19.644531 13.34375 19.792969 14.09375 20.140625 14.820312 C 20.890625 16.394531 22.601562 18.289062 24.503906 18.121094 C 25.699219 18.015625 26.976562 17.863281 27.976562 17.246094 C 28.121094 17.160156 28.289062 17.320312 28.207031 17.464844 C 27.835938 18.128906 27.410156 18.757812 26.839844 19.25 C 25.863281 20.097656 24.699219 20.324219 23.449219 20.242188 C 22.253906 20.164062 20.984375 20.042969 20.035156 19.234375 C 16.835938 16.511719 17.53125 12.292969 18 8.585938 C 18.09375 7.871094 18.621094 7.492188 19.144531 7.972656 C 19.363281 8.171875 19.488281 8.449219 19.511719 8.738281 C 19.625 10.039062 19.484375 11.332031 19.585938 12.582031 " fill-opacity="1" fill-rule="nonzero"/><path fill="#f4de0a" d="M 19.585938 12.582031 C 19.644531 13.34375 19.792969 14.09375 20.140625 14.820312 C 20.890625 16.394531 22.601562 18.289062 24.503906 18.121094 C 25.699219 18.015625 26.976562 17.863281 27.976562 17.246094 C 28.121094 17.160156 28.289062 17.320312 28.207031 17.464844 C 27.835938 18.128906 27.410156 18.757812 26.839844 19.25 C 25.863281 20.097656 24.699219 20.324219 23.449219 20.242188 C 22.253906 20.164062 20.984375 20.042969 20.035156 19.234375 C 16.835938 16.511719 17.53125 12.292969 18 8.585938 C 18.09375 7.871094 18.621094 7.492188 19.144531 7.972656 C 19.363281 8.171875 19.488281 8.449219 19.511719 8.738281 C 19.625 10.039062 19.484375 11.332031 19.585938 12.582031 " fill-opacity="1" fill-rule="nonzero"/></g><g clip-path="url(#94017025a0)"><path fill="#f1b210" d="M 22.792969 20.046875 C 20.707031 19.175781 19.097656 17.566406 18.308594 15.4375 C 17.871094 14.246094 17.789062 12.960938 17.808594 11.703125 C 17.824219 10.527344 17.9375 9.355469 18.109375 8.195312 C 18.058594 8.308594 18.019531 8.441406 18 8.585938 C 17.53125 12.292969 16.835938 16.511719 20.035156 19.234375 C 20.945312 20.007812 22.117188 20.15625 23.285156 20.234375 C 23.117188 20.175781 22.953125 20.113281 22.792969 20.046875 " fill-opacity="1" fill-rule="nonzero"/></g><path fill="#281711" d="M 3.292969 8.457031 C 3.179688 8.441406 2.808594 8.480469 2.675781 8.484375 C 2.605469 8.488281 2.554688 8.507812 2.535156 8.582031 C 2.515625 8.667969 2.492188 8.753906 2.472656 8.835938 C 2.472656 8.847656 2.460938 8.898438 2.449219 8.945312 C 2.441406 8.988281 2.472656 9.027344 2.515625 9.023438 C 2.699219 9.011719 2.933594 8.988281 3.070312 8.976562 C 3.144531 8.78125 3.203125 8.648438 3.292969 8.457031 " fill-opacity="1" fill-rule="nonzero"/><path fill="#a17c18" d="M 17.285156 9.402344 C 17.324219 9.320312 17.378906 9.1875 17.351562 9.097656 C 17.25 9.078125 17.222656 9.265625 17.203125 9.332031 C 17.195312 9.355469 17.191406 9.378906 17.195312 9.402344 C 17.203125 9.425781 17.230469 9.445312 17.253906 9.4375 C 17.265625 9.433594 17.277344 9.417969 17.285156 9.402344 " fill-opacity="1" fill-rule="nonzero"/><path fill="#a17c18" d="M 18.964844 9.796875 C 19.007812 9.714844 19.058594 9.582031 19.03125 9.492188 C 18.929688 9.472656 18.902344 9.65625 18.882812 9.726562 C 18.875 9.75 18.871094 9.773438 18.878906 9.796875 C 18.882812 9.820312 18.910156 9.839844 18.933594 9.832031 C 18.949219 9.828125 18.957031 9.8125 18.964844 9.796875 " fill-opacity="1" fill-rule="nonzero"/><path fill="#a17c18" d="M 15.21875 14.101562 C 15.257812 14.019531 15.3125 13.886719 15.285156 13.796875 C 15.183594 13.777344 15.15625 13.964844 15.136719 14.03125 C 15.128906 14.054688 15.125 14.078125 15.128906 14.101562 C 15.136719 14.125 15.164062 14.144531 15.1875 14.136719 C 15.199219 14.132812 15.210938 14.117188 15.21875 14.101562 " fill-opacity="1" fill-rule="nonzero"/><path fill="#a17c18" d="M 19.195312 12.875 C 19.199219 12.78125 19.195312 12.640625 19.132812 12.566406 C 19.035156 12.589844 19.082031 12.769531 19.089844 12.839844 C 19.09375 12.867188 19.097656 12.890625 19.113281 12.910156 C 19.128906 12.929688 19.160156 12.9375 19.179688 12.917969 C 19.191406 12.910156 19.195312 12.890625 19.195312 12.875 " fill-opacity="1" fill-rule="nonzero"/><path fill="#a17c18" d="M 19.578125 14.917969 C 19.570312 14.828125 19.539062 14.6875 19.464844 14.628906 C 19.371094 14.667969 19.453125 14.835938 19.472656 14.90625 C 19.480469 14.929688 19.488281 14.953125 19.507812 14.96875 C 19.527344 14.984375 19.558594 14.984375 19.574219 14.964844 C 19.582031 14.953125 19.582031 14.9375 19.578125 14.917969 " fill-opacity="1" fill-rule="nonzero"/><path fill="#a17c18" d="M 11.652344 16.085938 C 11.734375 16.042969 11.851562 15.960938 11.878906 15.867188 C 11.804688 15.796875 11.679688 15.9375 11.625 15.980469 C 11.605469 15.996094 11.585938 16.015625 11.582031 16.039062 C 11.574219 16.0625 11.582031 16.09375 11.605469 16.097656 C 11.625 16.101562 11.640625 16.09375 11.652344 16.085938 " fill-opacity="1" fill-rule="nonzero"/><path fill="#a17c18" d="M 20.113281 16.113281 C 20.113281 16.023438 20.105469 15.878906 20.042969 15.808594 C 19.945312 15.835938 19.996094 16.015625 20.007812 16.082031 C 20.011719 16.109375 20.015625 16.132812 20.03125 16.152344 C 20.046875 16.167969 20.078125 16.175781 20.097656 16.160156 C 20.109375 16.148438 20.109375 16.128906 20.113281 16.113281 " fill-opacity="1" fill-rule="nonzero"/><path fill="#a17c18" d="M 17.328125 10.230469 C 17.292969 10.25 17.28125 10.292969 17.273438 10.335938 C 17.253906 10.410156 17.234375 10.484375 17.21875 10.558594 C 17.207031 10.617188 17.210938 10.679688 17.269531 10.609375 C 17.34375 10.515625 17.351562 10.339844 17.328125 10.230469 " fill-opacity="1" fill-rule="nonzero"/><path fill="#a17c18" d="M 19.089844 11.578125 C 19.054688 11.601562 19.042969 11.644531 19.035156 11.683594 C 19.015625 11.757812 18.996094 11.835938 18.980469 11.910156 C 18.96875 11.964844 18.972656 12.03125 19.03125 11.960938 C 19.105469 11.867188 19.113281 11.691406 19.089844 11.578125 " fill-opacity="1" fill-rule="nonzero"/><path fill="#a17c18" d="M 16.578125 10.285156 L 16.589844 10.296875 C 16.628906 10.359375 16.578125 10.433594 16.539062 10.488281 C 16.507812 10.527344 16.351562 10.660156 16.417969 10.53125 C 16.457031 10.457031 16.503906 10.382812 16.546875 10.304688 C 16.550781 10.292969 16.566406 10.277344 16.578125 10.285156 " fill-opacity="1" fill-rule="nonzero"/><path fill="#a17c18" d="M 18.332031 10.449219 L 18.347656 10.449219 C 18.433594 10.46875 18.445312 10.570312 18.453125 10.644531 C 18.460938 10.703125 18.433594 10.9375 18.390625 10.78125 C 18.363281 10.6875 18.34375 10.589844 18.320312 10.496094 C 18.316406 10.480469 18.316406 10.457031 18.332031 10.449219 " fill-opacity="1" fill-rule="nonzero"/><path fill="#a17c18" d="M 19.203125 10.402344 L 19.21875 10.414062 C 19.273438 10.480469 19.21875 10.570312 19.179688 10.632812 C 19.148438 10.679688 18.980469 10.847656 19.042969 10.695312 C 19.078125 10.609375 19.125 10.519531 19.164062 10.433594 C 19.171875 10.417969 19.183594 10.398438 19.203125 10.402344 " fill-opacity="1" fill-rule="nonzero"/><path fill="#a17c18" d="M 10.144531 16.996094 L 10.148438 17.015625 C 10.148438 17.089844 10.0625 17.125 10 17.144531 C 9.953125 17.164062 9.75 17.191406 9.875 17.121094 C 9.949219 17.078125 10.03125 17.039062 10.105469 17 C 10.117188 16.992188 10.136719 16.984375 10.144531 16.996094 " fill-opacity="1" fill-rule="nonzero"/><path fill="#a17c18" d="M 17.015625 8.644531 C 17.011719 8.675781 16.992188 8.703125 16.972656 8.726562 C 16.945312 8.757812 16.757812 8.960938 16.753906 8.867188 C 16.746094 8.765625 16.933594 8.636719 17.015625 8.644531 " fill-opacity="1" fill-rule="nonzero"/><path fill="#a17c18" d="M 14.695312 13.320312 C 14.691406 13.351562 14.671875 13.378906 14.652344 13.402344 C 14.625 13.4375 14.4375 13.636719 14.433594 13.542969 C 14.425781 13.445312 14.613281 13.3125 14.695312 13.320312 " fill-opacity="1" fill-rule="nonzero"/><path fill="#a17c18" d="M 13.558594 15.675781 C 13.554688 15.707031 13.535156 15.734375 13.511719 15.757812 C 13.488281 15.789062 13.300781 15.988281 13.292969 15.894531 C 13.285156 15.796875 13.472656 15.667969 13.558594 15.675781 " fill-opacity="1" fill-rule="nonzero"/><path fill="#a17c18" d="M 16.601562 12.03125 C 16.589844 12.050781 16.574219 12.066406 16.554688 12.074219 C 16.535156 12.078125 16.507812 12.070312 16.503906 12.050781 C 16.5 12.035156 16.511719 12.023438 16.519531 12.011719 C 16.550781 11.960938 16.730469 11.65625 16.78125 11.695312 C 16.851562 11.757812 16.636719 11.988281 16.601562 12.03125 " fill-opacity="1" fill-rule="nonzero"/><path fill="#a17c18" d="M 19.039062 13.695312 C 19.042969 13.714844 19.046875 13.738281 19.042969 13.757812 C 19.035156 13.777344 19.011719 13.792969 18.992188 13.78125 C 18.980469 13.777344 18.972656 13.761719 18.96875 13.75 C 18.953125 13.695312 18.824219 13.363281 18.882812 13.347656 C 18.976562 13.328125 19.027344 13.640625 19.039062 13.695312 " fill-opacity="1" fill-rule="nonzero"/><path fill="#a17c18" d="M 18.347656 12.527344 C 18.347656 12.546875 18.34375 12.570312 18.332031 12.585938 C 18.320312 12.601562 18.289062 12.609375 18.277344 12.59375 C 18.265625 12.585938 18.265625 12.566406 18.265625 12.554688 C 18.265625 12.496094 18.253906 12.140625 18.316406 12.148438 C 18.40625 12.160156 18.355469 12.46875 18.347656 12.527344 " fill-opacity="1" fill-rule="nonzero"/><path fill="#a17c18" d="M 18.589844 14.320312 C 18.597656 14.339844 18.609375 14.359375 18.605469 14.378906 C 18.601562 14.402344 18.582031 14.421875 18.5625 14.414062 C 18.550781 14.414062 18.539062 14.398438 18.53125 14.386719 C 18.503906 14.339844 18.304688 14.042969 18.363281 14.015625 C 18.445312 13.976562 18.5625 14.269531 18.589844 14.320312 " fill-opacity="1" fill-rule="nonzero"/><path fill="#a17c18" d="M 19.066406 15.902344 C 19.078125 15.921875 19.085938 15.941406 19.082031 15.964844 C 19.082031 15.984375 19.0625 16.003906 19.039062 16 C 19.027344 15.996094 19.019531 15.980469 19.011719 15.96875 C 18.980469 15.921875 18.78125 15.625 18.839844 15.597656 C 18.925781 15.558594 19.042969 15.851562 19.066406 15.902344 " fill-opacity="1" fill-rule="nonzero"/><path fill="#a17c18" d="M 7.328125 17.175781 C 7.308594 17.179688 7.289062 17.1875 7.265625 17.179688 C 7.246094 17.175781 7.230469 17.152344 7.238281 17.132812 C 7.246094 17.121094 7.257812 17.113281 7.273438 17.109375 C 7.324219 17.085938 7.648438 16.9375 7.664062 17 C 7.691406 17.089844 7.382812 17.15625 7.328125 17.175781 " fill-opacity="1" fill-rule="nonzero"/><path fill="#a17c18" d="M 9.449219 16.4375 C 9.429688 16.445312 9.40625 16.453125 9.386719 16.449219 C 9.367188 16.445312 9.347656 16.421875 9.355469 16.402344 C 9.359375 16.390625 9.371094 16.382812 9.386719 16.375 C 9.4375 16.351562 9.746094 16.175781 9.769531 16.234375 C 9.800781 16.324219 9.5 16.417969 9.449219 16.4375 " fill-opacity="1" fill-rule="nonzero"/><path fill="#a17c18" d="M 15.925781 11.429688 C 15.902344 11.449219 15.878906 11.464844 15.859375 11.488281 C 15.851562 11.492188 15.847656 11.5 15.847656 11.507812 C 15.851562 11.523438 15.871094 11.519531 15.886719 11.515625 C 15.980469 11.476562 16.082031 11.433594 16.125 11.339844 C 16.152344 11.285156 16.125 11.242188 16.070312 11.277344 C 16.019531 11.316406 15.976562 11.386719 15.925781 11.429688 " fill-opacity="1" fill-rule="nonzero"/><path fill="#a17c18" d="M 15.382812 12.539062 C 15.363281 12.558594 15.339844 12.574219 15.320312 12.597656 C 15.3125 12.605469 15.304688 12.613281 15.308594 12.621094 C 15.3125 12.632812 15.332031 12.632812 15.347656 12.625 C 15.441406 12.589844 15.542969 12.542969 15.585938 12.453125 C 15.613281 12.394531 15.585938 12.351562 15.53125 12.390625 C 15.476562 12.425781 15.4375 12.496094 15.382812 12.539062 " fill-opacity="1" fill-rule="nonzero"/><path fill="#a17c18" d="M 15.863281 13.203125 C 15.921875 13.21875 15.984375 13.210938 16.03125 13.179688 C 16.078125 13.148438 16.117188 13.089844 16.117188 13.035156 C 16.082031 13.027344 16.035156 13.09375 16 13.113281 C 15.984375 13.125 15.875 13.207031 15.863281 13.203125 " fill-opacity="1" fill-rule="nonzero"/><path fill="#a17c18" d="M 12.335938 15.316406 C 12.390625 15.332031 12.453125 15.324219 12.5 15.292969 C 12.546875 15.261719 12.585938 15.203125 12.585938 15.148438 C 12.550781 15.140625 12.503906 15.207031 12.46875 15.226562 C 12.453125 15.238281 12.34375 15.320312 12.335938 15.316406 " fill-opacity="1" fill-rule="nonzero"/><path fill="#a17c18" d="M 13.558594 14.914062 L 13.558594 14.933594 L 13.570312 14.9375 C 13.613281 14.941406 13.65625 14.917969 13.695312 14.894531 C 13.753906 14.859375 13.832031 14.820312 13.871094 14.761719 C 13.910156 14.703125 13.882812 14.664062 13.824219 14.703125 C 13.777344 14.738281 13.738281 14.777344 13.683594 14.808594 C 13.636719 14.835938 13.585938 14.863281 13.558594 14.914062 " fill-opacity="1" fill-rule="nonzero"/></svg>