<svg xmlns="http://www.w3.org/2000/svg" xmlns:xlink="http://www.w3.org/1999/xlink" width="40" zoomAndPan="magnify" viewBox="0 0 30 30.000001" height="40" preserveAspectRatio="xMidYMid meet" version="1.0"><defs><clipPath id="ee473c8a0c"><path d="M 11.617188 3.984375 L 17.773438 3.984375 L 17.773438 25.628906 L 11.617188 25.628906 Z M 11.617188 3.984375 " clip-rule="nonzero"/></clipPath><clipPath id="ad4d53198e"><path d="M 13 3.128906 L 18 3.128906 L 18 24 L 13 24 Z M 13 3.128906 " clip-rule="nonzero"/></clipPath><clipPath id="3ae5552060"><path d="M 11.875 3.769531 L 18.125 3.769531 L 18.125 25.457031 L 11.875 25.457031 Z M 11.875 3.769531 " clip-rule="nonzero"/></clipPath></defs><g clip-path="url(#ee473c8a0c)"><path fill="#96381d" d="M 17.679688 14.210938 C 17.636719 13.496094 16.683594 11.976562 16.601562 11.664062 C 16.523438 11.355469 16.550781 10.136719 16.503906 9.484375 C 16.460938 8.828125 15.859375 5.078125 15.859375 5.078125 C 15.859375 5.078125 16.050781 4.992188 16.050781 4.863281 C 16.050781 4.734375 15.945312 4.675781 15.945312 4.675781 C 15.910156 4.515625 15.972656 4.410156 15.902344 4.324219 C 15.621094 3.980469 14.695312 3.988281 14.695312 3.988281 C 14.695312 3.988281 13.765625 3.980469 13.484375 4.324219 C 13.414062 4.410156 13.476562 4.515625 13.441406 4.675781 C 13.441406 4.675781 13.335938 4.734375 13.335938 4.863281 C 13.335938 4.992188 13.527344 5.078125 13.527344 5.078125 C 13.527344 5.078125 12.925781 8.828125 12.882812 9.484375 C 12.835938 10.136719 12.863281 11.355469 12.78125 11.664062 C 12.703125 11.976562 11.75 13.496094 11.707031 14.210938 C 11.667969 14.929688 11.617188 23.769531 11.617188 23.769531 C 11.617188 24.953125 12.503906 25.628906 14.695312 25.628906 C 16.882812 25.628906 17.769531 24.953125 17.769531 23.769531 C 17.769531 23.769531 17.71875 14.929688 17.679688 14.210938 " fill-opacity="1" fill-rule="nonzero"/></g><g clip-path="url(#ad4d53198e)"><path fill="#31a540" d="M 16.191406 5.804688 C 16.191406 5.804688 15.847656 5.644531 15.019531 5.644531 C 14.191406 5.644531 13.847656 5.804688 13.847656 5.804688 L 13.359375 9.308594 C 13.511719 9.152344 14.601562 9.105469 15.019531 9.105469 C 15.433594 9.105469 16.523438 9.152344 16.675781 9.308594 Z M 16.328125 3.660156 C 16.273438 3.410156 15.6875 3.128906 15.019531 3.128906 C 15.019531 3.128906 15.015625 3.128906 15.015625 3.128906 C 14.347656 3.128906 13.761719 3.410156 13.710938 3.660156 C 13.648438 3.957031 13.710938 4.070312 13.710938 4.070312 C 13.710938 4.070312 13.898438 3.609375 15.019531 3.609375 C 16.136719 3.609375 16.328125 4.070312 16.328125 4.070312 C 16.328125 4.070312 16.386719 3.957031 16.328125 3.660156 Z M 17.292969 15.226562 L 17.292969 23.011719 C 16.648438 23.328125 15.175781 23.296875 15.175781 23.296875 C 15.175781 23.296875 13.699219 23.328125 13.058594 23.011719 L 13.058594 15.226562 C 13.058594 14.144531 14.78125 13.976562 15.175781 13.976562 C 15.570312 13.976562 17.292969 14.144531 17.292969 15.226562 " fill-opacity="1" fill-rule="nonzero"/></g><path fill="#fbd439" d="M 15.019531 6.285156 C 14.578125 6.285156 14.21875 6.769531 14.21875 7.367188 C 14.21875 7.964844 14.578125 8.449219 15.019531 8.449219 C 15.460938 8.449219 15.816406 7.964844 15.816406 7.367188 C 15.816406 6.769531 15.460938 6.285156 15.019531 6.285156 Z M 15.292969 22.761719 C 15.226562 22.761719 15.1875 22.761719 15.1875 22.761719 L 15.164062 22.761719 C 15.160156 22.761719 15.121094 22.761719 15.058594 22.761719 C 14.46875 22.761719 13.933594 22.710938 13.582031 22.628906 L 13.582031 15.28125 C 13.582031 14.8125 14.617188 14.511719 15.175781 14.511719 C 15.730469 14.511719 16.769531 14.8125 16.769531 15.28125 L 16.769531 22.628906 C 16.414062 22.710938 15.878906 22.761719 15.292969 22.761719 " fill-opacity="1" fill-rule="nonzero"/><path fill="#fab980" d="M 12.722656 22.808594 C 12.703125 21.925781 12.773438 21.089844 12.484375 21.097656 C 12.195312 21.105469 12.226562 21.953125 12.25 22.835938 C 12.269531 23.722656 12.523438 24.433594 12.8125 24.429688 C 13.101562 24.421875 12.746094 23.695312 12.722656 22.808594 Z M 12.449219 19.90625 C 12.519531 19.914062 12.6875 20.019531 12.691406 20.359375 C 12.691406 20.703125 12.621094 20.75 12.503906 20.753906 C 12.390625 20.753906 12.292969 20.703125 12.289062 20.359375 C 12.285156 20.015625 12.332031 19.894531 12.449219 19.90625 " fill-opacity="1" fill-rule="nonzero"/><g clip-path="url(#3ae5552060)"><path fill="#231f20" d="M 18 24.621094 C 17.921875 24.671875 17.835938 24.71875 17.746094 24.753906 C 17.160156 25.550781 16.039062 25.484375 15.175781 25.390625 C 15.125 25.386719 15.121094 25.304688 15.175781 25.308594 C 15.902344 25.34375 16.886719 25.390625 17.464844 24.855469 C 17.164062 24.9375 16.847656 24.976562 16.550781 25.015625 C 16.03125 25.089844 15.507812 25.125 14.984375 25.113281 C 14.457031 25.105469 13.929688 25.050781 13.410156 24.957031 C 13.144531 24.910156 12.871094 24.851562 12.609375 24.773438 C 12.585938 24.765625 12.5625 24.757812 12.535156 24.75 C 12.730469 24.988281 12.960938 25.089844 13.265625 25.15625 C 13.585938 25.226562 13.90625 25.308594 14.234375 25.316406 C 14.320312 25.320312 14.316406 25.4375 14.234375 25.449219 C 13.894531 25.484375 13.550781 25.386719 13.21875 25.316406 C 12.964844 25.265625 12.753906 25.195312 12.554688 25.015625 C 12.152344 24.640625 11.984375 24.074219 11.957031 23.535156 C 11.871094 21.933594 11.941406 20.3125 11.957031 18.710938 C 11.957031 18.65625 12.035156 18.65625 12.039062 18.710938 C 12.039062 18.777344 12.039062 18.84375 12.042969 18.914062 C 12.046875 18.640625 12.050781 18.371094 12.054688 18.101562 C 12.050781 18.128906 12.046875 18.15625 12.046875 18.183594 C 12.035156 18.261719 11.929688 18.261719 11.925781 18.183594 C 11.886719 17.511719 11.9375 16.832031 11.953125 16.160156 C 11.96875 15.539062 11.972656 14.914062 12.007812 14.292969 C 12.039062 13.773438 12.171875 13.324219 12.429688 12.878906 C 12.695312 12.421875 12.996094 12.003906 13.125 11.476562 C 13.140625 11.410156 13.234375 11.441406 13.226562 11.503906 C 13.15625 11.988281 12.878906 12.398438 12.636719 12.808594 C 12.335938 13.3125 12.175781 13.792969 12.152344 14.386719 C 12.105469 15.53125 12.164062 16.691406 12.078125 17.832031 C 12.101562 17.816406 12.144531 17.832031 12.148438 17.871094 C 12.160156 18.371094 12.164062 18.867188 12.148438 19.363281 C 12.136719 19.792969 12.144531 20.246094 12.082031 20.671875 C 12.09375 21.425781 12.105469 22.183594 12.109375 22.9375 C 12.113281 23.476562 12.117188 24.011719 12.363281 24.484375 C 12.40625 24.117188 13.125 24.066406 13.382812 24.019531 C 13.976562 23.902344 14.625 23.8125 15.230469 23.871094 C 15.300781 23.878906 15.304688 23.984375 15.230469 23.988281 C 14.78125 24.015625 14.335938 24.007812 13.886719 24.066406 C 13.636719 24.101562 12.460938 24.195312 12.46875 24.574219 C 12.46875 24.582031 12.46875 24.589844 12.46875 24.59375 C 12.636719 24.699219 12.878906 24.726562 13.058594 24.765625 C 13.28125 24.8125 13.503906 24.855469 13.730469 24.886719 C 14.210938 24.957031 14.695312 24.988281 15.179688 24.988281 C 15.992188 24.988281 16.890625 24.929688 17.664062 24.621094 C 17.691406 24.578125 17.714844 24.535156 17.738281 24.492188 C 17.753906 24.464844 17.765625 24.441406 17.777344 24.414062 C 17.773438 24.410156 17.765625 24.40625 17.761719 24.402344 C 17.597656 24.164062 17.1875 24.113281 16.925781 24.070312 C 16.675781 24.027344 16.40625 24.03125 16.164062 23.960938 C 16.113281 23.945312 16.125 23.875 16.175781 23.871094 C 16.507812 23.847656 16.890625 23.917969 17.214844 24 C 17.414062 24.046875 17.703125 24.113281 17.824219 24.300781 C 18.058594 23.667969 17.894531 22.960938 17.96875 22.300781 C 17.980469 22.222656 18.085938 22.21875 18.089844 22.300781 C 18.121094 22.996094 18.214844 23.871094 17.890625 24.519531 C 17.90625 24.511719 17.917969 24.503906 17.933594 24.5 C 18.011719 24.460938 18.078125 24.570312 18 24.621094 Z M 18.074219 20.050781 C 18.074219 20.515625 18.089844 20.980469 18.097656 21.445312 C 18.097656 21.496094 18.054688 21.519531 18.015625 21.511719 C 18.011719 21.566406 18.007812 21.621094 18 21.675781 C 17.992188 21.734375 17.914062 21.710938 17.910156 21.664062 C 17.847656 21.148438 17.910156 20.59375 17.914062 20.074219 C 17.921875 19.5625 17.925781 19.050781 17.933594 18.539062 C 17.945312 17.496094 17.925781 16.449219 17.972656 15.410156 C 17.972656 15.347656 18.066406 15.347656 18.066406 15.410156 C 18.09375 16.46875 18.050781 17.53125 18.042969 18.589844 C 18.042969 18.597656 18.042969 18.605469 18.042969 18.613281 C 18.058594 18.617188 18.078125 18.632812 18.078125 18.65625 C 18.117188 19.113281 18.070312 19.589844 18.074219 20.050781 Z M 14.953125 3.992188 C 15.167969 3.992188 15.382812 4.023438 15.597656 4.058594 C 15.785156 4.089844 15.996094 4.105469 16.152344 4.226562 C 16.148438 4.234375 16.148438 4.242188 16.144531 4.25 C 16.136719 4.289062 16.132812 4.328125 16.136719 4.363281 C 16.136719 4.371094 16.136719 4.382812 16.136719 4.390625 C 16.113281 4.378906 16.089844 4.367188 16.0625 4.359375 C 15.574219 4.199219 15.035156 4.171875 14.527344 4.238281 C 14.328125 4.265625 14.09375 4.328125 13.914062 4.4375 C 13.90625 4.394531 13.894531 4.347656 13.882812 4.304688 C 14.203125 4.078125 14.5625 3.984375 14.953125 3.992188 Z M 13.261719 10.949219 C 13.300781 10.445312 13.292969 9.941406 13.347656 9.4375 C 13.402344 8.890625 13.488281 8.351562 13.578125 7.808594 C 13.742188 6.824219 13.945312 5.832031 14 4.832031 C 14.003906 4.789062 13.96875 4.773438 13.9375 4.777344 C 13.933594 4.773438 13.929688 4.765625 13.921875 4.761719 C 13.664062 4.601562 14.46875 4.386719 14.59375 4.375 C 14.84375 4.34375 15.097656 4.347656 15.347656 4.375 C 15.496094 4.394531 15.644531 4.417969 15.792969 4.453125 C 15.855469 4.46875 15.917969 4.480469 15.976562 4.5 C 16.035156 4.519531 16.390625 4.617188 16.199219 4.777344 C 16.179688 4.792969 16.175781 4.808594 16.175781 4.828125 C 16.140625 4.816406 16.101562 4.835938 16.105469 4.878906 C 16.285156 6.671875 16.722656 8.421875 16.746094 10.234375 C 16.753906 10.636719 16.722656 11.046875 16.78125 11.449219 C 16.835938 11.804688 16.96875 12.132812 17.140625 12.441406 C 17.335938 12.796875 17.578125 13.128906 17.726562 13.511719 C 17.878906 13.90625 17.953125 14.332031 17.96875 14.753906 C 17.96875 14.828125 18.070312 14.824219 18.074219 14.753906 C 18.128906 13.964844 17.851562 13.308594 17.457031 12.652344 C 17.253906 12.316406 17.0625 11.96875 16.976562 11.582031 C 16.875 11.125 16.921875 10.648438 16.910156 10.179688 C 16.894531 9.304688 16.765625 8.4375 16.632812 7.574219 C 16.496094 6.6875 16.394531 5.785156 16.214844 4.90625 C 16.222656 4.910156 16.230469 4.917969 16.242188 4.917969 C 16.242188 4.917969 16.242188 4.914062 16.242188 4.914062 C 16.257812 4.917969 16.277344 4.914062 16.292969 4.902344 C 16.464844 4.769531 16.417969 4.613281 16.300781 4.5 C 16.3125 4.449219 16.28125 4.398438 16.28125 4.34375 C 16.277344 4.320312 16.28125 4.296875 16.285156 4.269531 C 16.289062 4.246094 16.285156 4.210938 16.289062 4.199219 C 16.292969 4.175781 16.277344 4.160156 16.257812 4.152344 C 16.171875 4.011719 16.035156 3.96875 15.878906 3.933594 C 15.609375 3.875 15.328125 3.828125 15.046875 3.8125 C 14.589844 3.789062 14.125 3.882812 13.761719 4.179688 C 13.730469 4.207031 13.730469 4.25 13.75 4.28125 C 13.753906 4.359375 13.761719 4.4375 13.78125 4.511719 C 13.785156 4.515625 13.785156 4.523438 13.789062 4.527344 C 13.652344 4.660156 13.699219 4.800781 13.878906 4.863281 C 13.878906 4.863281 13.882812 4.863281 13.882812 4.863281 C 13.753906 5.90625 13.578125 6.933594 13.40625 7.96875 C 13.328125 8.441406 13.253906 8.914062 13.203125 9.386719 C 13.148438 9.894531 13.082031 10.4375 13.132812 10.949219 C 13.140625 11.03125 13.253906 11.035156 13.261719 10.949219 " fill-opacity="1" fill-rule="nonzero"/></g></svg>