<svg xmlns="http://www.w3.org/2000/svg" xmlns:xlink="http://www.w3.org/1999/xlink" width="40" zoomAndPan="magnify" viewBox="0 0 30 30.000001" height="40" preserveAspectRatio="xMidYMid meet" version="1.0"><defs><clipPath id="3408935d08"><path d="M 1.441406 6.183594 L 28.296875 6.183594 L 28.296875 25 L 1.441406 25 Z M 1.441406 6.183594 " clip-rule="nonzero"/></clipPath><clipPath id="cc85d8ebfd"><path d="M 1.441406 6.183594 L 28.296875 6.183594 L 28.296875 25.054688 L 1.441406 25.054688 Z M 1.441406 6.183594 " clip-rule="nonzero"/></clipPath></defs><g clip-path="url(#3408935d08)"><path fill="#ffffff" d="M 24.992188 8.449219 C 25.324219 7.339844 25.25 7.578125 25.484375 6.710938 L 25.597656 6.292969 L 7.804688 6.292969 C 6.777344 10.097656 4.84375 16.480469 2.238281 21.585938 C 1.457031 23.117188 2.539062 24.945312 4.226562 24.945312 L 20.707031 24.945312 C 21.207031 24.945312 21.671875 24.6875 21.941406 24.257812 C 23.828125 21.261719 25.394531 17.292969 26.554688 13.800781 L 27.351562 11.273438 C 27.667969 10.226562 27.929688 9.289062 28.144531 8.496094 Z M 24.992188 8.449219 " fill-opacity="1" fill-rule="nonzero"/></g><path fill="#f9d252" d="M 13.429688 13.988281 L 12.25 17.207031 C 12.152344 17.46875 11.90625 17.644531 11.628906 17.644531 L 8.449219 17.644531 C 7.984375 17.644531 7.664062 17.171875 7.828125 16.730469 L 9.007812 13.511719 C 9.105469 13.246094 9.351562 13.074219 9.628906 13.074219 L 12.8125 13.074219 C 13.273438 13.074219 13.59375 13.546875 13.429688 13.988281 Z M 13.429688 13.988281 " fill-opacity="1" fill-rule="nonzero"/><g clip-path="url(#cc85d8ebfd)"><path fill="#000000" d="M 14.65625 13.886719 L 20.539062 13.886719 L 20.539062 14.101562 L 14.65625 14.101562 Z M 19.59375 9.820312 C 19.695312 9.875 19.839844 9.925781 20.015625 9.976562 C 20.164062 10.019531 20.277344 10.0625 20.359375 10.097656 C 20.441406 10.136719 20.503906 10.191406 20.542969 10.261719 C 20.585938 10.332031 20.589844 10.425781 20.558594 10.542969 C 20.515625 10.6875 20.429688 10.808594 20.296875 10.902344 C 20.164062 10.996094 20.007812 11.042969 19.824219 11.042969 C 19.636719 11.042969 19.503906 10.996094 19.429688 10.898438 C 19.359375 10.800781 19.335938 10.683594 19.359375 10.542969 L 18.953125 10.542969 C 18.90625 10.707031 18.914062 10.851562 18.964844 10.976562 C 19.015625 11.101562 19.109375 11.199219 19.242188 11.269531 C 19.375 11.339844 19.539062 11.375 19.734375 11.375 C 19.933594 11.375 20.121094 11.335938 20.292969 11.253906 C 20.464844 11.171875 20.609375 11.070312 20.71875 10.9375 C 20.832031 10.808594 20.910156 10.671875 20.949219 10.523438 C 21.003906 10.335938 21.003906 10.183594 20.953125 10.074219 C 20.898438 9.964844 20.820312 9.882812 20.71875 9.828125 C 20.613281 9.777344 20.472656 9.722656 20.292969 9.667969 C 20.148438 9.621094 20.035156 9.578125 19.957031 9.542969 C 19.878906 9.507812 19.816406 9.457031 19.777344 9.386719 C 19.734375 9.316406 19.730469 9.226562 19.761719 9.117188 C 19.804688 8.964844 19.886719 8.847656 20.011719 8.761719 C 20.136719 8.679688 20.28125 8.636719 20.441406 8.636719 C 20.613281 8.636719 20.738281 8.679688 20.816406 8.765625 C 20.898438 8.855469 20.925781 8.957031 20.910156 9.070312 L 21.332031 9.070312 C 21.375 8.839844 21.328125 8.652344 21.191406 8.511719 C 21.054688 8.371094 20.851562 8.300781 20.574219 8.300781 C 20.382812 8.300781 20.203125 8.332031 20.039062 8.402344 C 19.871094 8.472656 19.726562 8.570312 19.609375 8.695312 C 19.492188 8.824219 19.410156 8.96875 19.367188 9.132812 C 19.3125 9.320312 19.3125 9.46875 19.363281 9.578125 C 19.417969 9.6875 19.492188 9.769531 19.59375 9.820312 Z M 20.78125 23.421875 C 22.835938 20.207031 24.839844 14.527344 26.15625 10.328125 L 25.957031 10.261719 C 24.640625 14.449219 22.648438 20.109375 20.605469 23.304688 Z M 13.933594 15.558594 L 19.816406 15.558594 L 19.816406 15.339844 L 13.933594 15.339844 Z M 13.507812 17.117188 L 19.390625 17.117188 L 19.390625 16.902344 L 13.507812 16.902344 Z M 14.113281 11.34375 L 14.203125 11.019531 L 13.003906 11.019531 L 13.296875 9.984375 L 14.367188 9.984375 L 14.460938 9.660156 L 13.390625 9.660156 L 13.671875 8.65625 L 14.871094 8.65625 L 14.960938 8.332031 L 13.378906 8.332031 L 12.53125 11.34375 Z M 17.105469 8.925781 L 17.105469 11.34375 L 17.535156 11.34375 L 19.234375 8.339844 L 18.824219 8.339844 L 17.460938 10.878906 L 17.503906 8.339844 L 17.070312 8.339844 L 15.644531 10.886719 L 15.722656 8.339844 L 15.3125 8.339844 L 15.285156 11.347656 L 15.714844 11.34375 Z M 10.625 8.949219 L 11.492188 11.34375 L 11.875 11.34375 L 12.726562 8.332031 L 12.34375 8.332031 L 11.667969 10.722656 L 10.800781 8.332031 L 10.414062 8.332031 L 9.566406 11.34375 L 9.949219 11.34375 Z M 12.859375 18.679688 L 18.742188 18.679688 L 18.742188 18.464844 L 12.859375 18.464844 Z M 4.9375 22.144531 L 17.597656 22.144531 L 17.597656 21.925781 L 4.9375 21.925781 Z M 5.585938 20.582031 L 18.246094 20.582031 L 18.246094 20.363281 L 5.585938 20.363281 Z M 11.109375 18.496094 L 6.285156 18.496094 L 8.042969 13.707031 L 12.867188 13.707031 Z M 10.960938 18.277344 L 12.5625 13.921875 L 8.191406 13.921875 L 6.589844 18.277344 Z M 28.28125 8.390625 L 28.246094 8.523438 C 27.996094 9.445312 27.730469 10.378906 27.453125 11.304688 L 26.652344 13.835938 C 25.1875 18.242188 23.632812 21.769531 22.027344 24.316406 C 21.738281 24.777344 21.242188 25.054688 20.707031 25.054688 L 4.226562 25.054688 C 3.398438 25.054688 2.644531 24.621094 2.214844 23.898438 C 1.785156 23.171875 1.757812 22.289062 2.144531 21.535156 C 4.800781 16.332031 6.765625 9.734375 7.703125 6.265625 L 7.722656 6.183594 L 25.734375 6.183594 L 25.585938 6.738281 C 25.429688 7.316406 25.308594 7.757812 25.136719 8.34375 Z M 19.914062 24.839844 C 19.683594 24.699219 19.488281 24.503906 19.347656 24.253906 C 19.0625 23.757812 19.058594 23.164062 19.335938 22.664062 C 20.859375 19.910156 22.34375 16.359375 23.746094 12.117188 L 24.65625 9.214844 C 25 8.070312 25.15625 7.523438 25.382812 6.683594 L 25.457031 6.402344 L 7.882812 6.402344 C 6.9375 9.898438 4.976562 16.453125 2.328125 21.636719 C 1.980469 22.320312 2.003906 23.125 2.394531 23.785156 C 2.785156 24.445312 3.472656 24.839844 4.226562 24.839844 Z M 28.003906 8.601562 L 25.070312 8.558594 C 25.007812 8.773438 24.9375 9.007812 24.859375 9.277344 L 24.855469 9.28125 L 23.945312 12.183594 C 22.539062 16.441406 21.050781 20.003906 19.519531 22.769531 C 19.28125 23.199219 19.285156 23.714844 19.53125 24.144531 C 19.777344 24.578125 20.21875 24.839844 20.707031 24.839844 C 21.171875 24.839844 21.597656 24.597656 21.851562 24.199219 C 23.445312 21.667969 24.996094 18.160156 26.453125 13.765625 L 27.25 11.238281 C 27.515625 10.363281 27.769531 9.476562 28.003906 8.601562 Z M 28.003906 8.601562 " fill-opacity="1" fill-rule="nonzero"/></g></svg>