<svg xmlns="http://www.w3.org/2000/svg" xmlns:xlink="http://www.w3.org/1999/xlink" width="40" zoomAndPan="magnify" viewBox="0 0 30 30.000001" height="40" preserveAspectRatio="xMidYMid meet" version="1.0"><defs><clipPath id="6060780510"><path d="M 7 2.902344 L 23 2.902344 L 23 26.855469 L 7 26.855469 Z M 7 2.902344 " clip-rule="nonzero"/></clipPath><clipPath id="849edf39d7"><path d="M 6.113281 11 L 23.53125 11 L 23.53125 13 L 6.113281 13 Z M 6.113281 11 " clip-rule="nonzero"/></clipPath></defs><g clip-path="url(#6060780510)"><path fill="#ff5757" d="M 21.648438 26.675781 C 21.644531 26.769531 21.566406 26.84375 21.472656 26.84375 L 8.175781 26.84375 C 8.082031 26.84375 8.003906 26.769531 8 26.675781 L 7.140625 9.019531 C 7.140625 5.660156 9.863281 2.914062 13.191406 2.914062 L 16.457031 2.914062 C 19.785156 2.914062 22.507812 5.660156 22.507812 9.019531 Z M 21.648438 26.675781 " fill-opacity="1" fill-rule="nonzero"/></g><path fill="#e8eaf7" d="M 9.148438 12.925781 L 20.5 12.925781 C 20.664062 12.925781 20.796875 13.066406 20.789062 13.230469 L 20.214844 25.042969 C 20.207031 25.199219 20.082031 25.320312 19.925781 25.320312 L 9.722656 25.320312 C 9.566406 25.320312 9.441406 25.199219 9.433594 25.042969 L 8.859375 13.230469 C 8.851562 13.0625 8.984375 12.925781 9.148438 12.925781 Z M 9.148438 12.925781 " fill-opacity="1" fill-rule="nonzero"/><path fill="#9d0505" d="M 20.886719 11.214844 L 8.761719 11.214844 L 8.652344 8.984375 C 8.664062 7.78125 9.136719 6.644531 9.988281 5.785156 C 10.847656 4.917969 11.984375 4.4375 13.191406 4.4375 L 16.457031 4.4375 C 17.664062 4.4375 18.800781 4.917969 19.660156 5.785156 C 20.511719 6.644531 20.984375 7.78125 20.992188 8.984375 Z M 20.886719 11.214844 " fill-opacity="1" fill-rule="nonzero"/><path fill="#ff5757" d="M 13.5 14.878906 L 16.007812 14.878906 C 16.007812 14.878906 16.746094 14.875 16.921875 15.222656 L 17.460938 16.273438 L 17.980469 15.984375 C 17.980469 15.984375 18.140625 15.964844 17.980469 16.273438 C 17.820312 16.578125 17.011719 17.898438 17.011719 17.898438 L 15.113281 17.753906 C 15.113281 17.753906 14.828125 17.683594 15.003906 17.574219 C 15.183594 17.464844 15.363281 17.390625 15.363281 17.390625 L 14.59375 15.765625 C 14.59375 15.765625 14.269531 15.078125 13.5 14.878906 Z M 11.644531 17.058594 L 13.5 18.316406 L 14.621094 16.542969 C 14.621094 16.542969 14.074219 15.429688 13.679688 15.230469 C 13.285156 15.03125 13.042969 15.125 12.917969 15.1875 C 12.792969 15.25 12.558594 15.613281 12.558594 15.613281 Z M 18.105469 20.738281 L 16.320312 20.734375 C 16.320312 20.734375 16.332031 20.539062 16.3125 20.328125 C 16.292969 20.117188 16.105469 20.347656 16.105469 20.347656 L 15.152344 22.011719 C 15.152344 22.011719 15.980469 23.320312 16.1875 23.597656 C 16.390625 23.878906 16.445312 23.722656 16.445312 23.722656 L 16.410156 23.125 L 17.582031 23.089844 C 17.96875 23.078125 18.285156 22.410156 18.285156 22.410156 L 19.371094 20.125 C 18.859375 20.742188 18.105469 20.738281 18.105469 20.738281 Z M 18.230469 17.496094 L 16.304688 18.636719 L 17.402344 20.425781 C 17.402344 20.425781 18.632812 20.410156 18.980469 20.136719 C 19.328125 19.863281 19.351562 19.605469 19.351562 19.464844 C 19.347656 19.324219 19.125 18.953125 19.125 18.953125 Z M 12.042969 21.242188 L 12.980469 19.707031 C 12.980469 19.707031 13.136719 19.820312 13.324219 19.914062 C 13.515625 20.007812 13.417969 19.726562 13.417969 19.726562 L 12.511719 18.035156 C 12.511719 18.035156 10.976562 18.0625 10.632812 18.09375 C 10.289062 18.121094 10.390625 18.25 10.390625 18.25 L 10.914062 18.535156 L 10.328125 19.558594 C 10.136719 19.898438 10.539062 20.519531 10.539062 20.519531 L 11.894531 22.652344 C 11.644531 21.890625 12.042969 21.242188 12.042969 21.242188 Z M 14.714844 23.046875 L 14.757812 20.792969 L 12.675781 20.800781 C 12.675781 20.800781 12.042969 21.867188 12.089844 22.308594 C 12.136719 22.75 12.34375 22.90625 12.464844 22.980469 C 12.585938 23.050781 13.015625 23.054688 13.015625 23.054688 Z M 14.714844 23.046875 " fill-opacity="1" fill-rule="nonzero"/><g clip-path="url(#849edf39d7)"><path fill="#ff5757" d="M 23.195312 12.316406 L 6.453125 12.316406 C 6.265625 12.316406 6.113281 12.160156 6.113281 11.972656 L 6.113281 11.953125 C 6.113281 11.765625 6.265625 11.613281 6.453125 11.613281 L 23.195312 11.613281 C 23.382812 11.613281 23.535156 11.765625 23.535156 11.953125 L 23.535156 11.972656 C 23.535156 12.160156 23.382812 12.316406 23.195312 12.316406 Z M 23.195312 12.316406 " fill-opacity="1" fill-rule="nonzero"/></g></svg>